:FULLY-SPECIFIED
:FORCE-ALL-JOINTS-BE-3DOF
:DEGREES
1835
root 6.75388 13.8578 27.7649 -19.631 51.936 -21.4528
lfemur -53.3927 29.8865 1.64789
ltibia 70.0591 -0 0
lfoot -7.59952 -8.98093 -0.0744052
ltoes -26.4121 0 0
rfemur 3.41196 -3.1951 17.0293
rtibia 49.9531 -0 0
rfoot -25.5926 -31.4097 0.0151496
rtoes -25.7653 0 0
lowerback 13.7235 4.84248 4.79515
upperback -0.308608 7.73646 5.08693
thorax -8.09222 3.70603 1.16143
lowerneck -4.42833 9.15596 2.62253
upperneck 8.04683 12.2381 -1.36178
head 3.72055 6.09972 -0.325078
lclavicle -1.20696e-013 4.87022e-015 0
lhumerus 62.0227 19.635 109.526
lradius 10.2875 -0 0
lwrist -88.5286 0 0
lhand -31.1831 40.6199 0.0637419
lfingers 7.12502 -0 0
lthumb -4.46006 70.5611 0.060391
rclavicle -1.20696e-013 4.87022e-015 0
rhumerus -71.6932 12.6656 -79.3222
rradius 125.594 -0 0
rwrist -7.83685 180 180
rhand -67.2191 11.0327 -3.24447
rfingers 7.12502 -0 0
rthumb -38.5626 8.89804 -5.36311
1836
root 6.78347 13.8534 27.7755 -19.6722 51.98 -21.653
lfemur -53.6055 29.9786 1.64997
ltibia 70.2942 -0 0
lfoot -7.80097 -9.00419 -0.0738307
ltoes -26.5496 0 0
rfemur 3.5855 -3.25695 17.0763
rtibia 49.6387 -0 0
rfoot -25.5315 -31.3768 0.0151598
rtoes -26.2518 0 0
lowerback 13.7575 4.87266 4.9406
upperback -0.339277 7.80562 5.08355
thorax -8.12478 3.73195 1.06099
lowerneck -4.26645 9.47293 2.86116
upperneck 7.94993 12.6718 -1.62527
head 3.71114 6.31264 -0.435231
lclavicle -1.20696e-013 4.87022e-015 0
lhumerus 62.1551 19.4025 109.699
lradius 10.27 -0 0
lwrist -88.6444 0 0
lhand -31.1794 40.542 0.0632705
lfingers 7.12502 -0 0
lthumb -4.45654 70.4831 0.0599495
rclavicle -1.20696e-013 4.87022e-015 0
rhumerus -71.9135 12.6221 -79.7521
rradius 125.669 -0 0
rwrist -7.62024 180 180
rhand -66.2622 4.41739 -3.48807
rfingers 7.12502 -0 0
rthumb -37.5576 1.69275 -5.75253
1837
root 6.81306 13.849 27.7861 -19.7271 52.0429 -21.8656
lfemur -53.8168 30.0425 1.65528
ltibia 70.5009 -0 0
lfoot -7.97572 -9.01533 -0.0711419
ltoes -26.6462 0 0
rfemur 3.75795 -3.33394 17.1301
rtibia 49.3244 -0 0
rfoot -25.4782 -31.3348 0.0147411
rtoes -26.751 0 0
lowerback 13.7932 4.89923 5.09582
upperback -0.369701 7.87155 5.0777
thorax -8.1567 3.7558 0.953088
lowerneck -4.09752 9.79521 3.1039
upperneck 7.84439 13.1132 -1.89263
head 3.69934 6.52964 -0.546736
lclavicle -1.20696e-013 4.87022e-015 0
lhumerus 62.2842 19.1409 109.853
lradius 10.2502 -0 0
lwrist -88.7203 0 0
lhand -31.1877 40.4867 0.0610101
lfingers 7.12502 -0 0
lthumb -4.46449 70.4274 0.0578126
rclavicle -1.20696e-013 4.87022e-015 0
rhumerus -72.1316 12.5661 -80.1883
rradius 125.738 -0 0
rwrist -7.58787 180 180
rhand -65.2541 -2.03972 -3.64857
rfingers 7.12502 -0 0
rthumb -36.4873 -5.97491 -5.98583
1838
root 6.84265 13.8446 27.7967 -19.7936 52.1215 -22.0877
lfemur -54.0256 30.0813 1.66357
ltibia 70.6829 -0 0
lfoot -8.12699 -9.01538 -0.066652
ltoes -26.7085 0 0
rfemur 3.92859 -3.42346 17.1892
rtibia 49.012 -0 0
rfoot -25.4323 -31.2853 0.0139509
rtoes -27.2575 0 0
lowerback 13.8301 4.9226 5.25847
upperback -0.399708 7.93442 5.06977
thorax -8.18777 3.77777 0.839476
lowerneck -3.92325 10.1202 3.34898
upperneck 7.73189 13.5586 -2.16213
head 3.6856 6.74894 -0.658788
lclavicle -1.20696e-013 4.87022e-015 0
lhumerus 62.4087 18.8548 109.989
lradius 10.2288 -0 0
lwrist -88.7596 0 0
lhand -31.2056 40.4506 0.0572402
lfingers 7.12502 -0 0
lthumb -4.48175 70.3904 0.0542449
rclavicle -1.20696e-013 4.87022e-015 0
rhumerus -72.3469 12.5 -80.6292
rradius 125.802 -0 0
rwrist -7.83882 180 180
rhand -64.2063 -8.31727 -3.72246
rfingers 7.12502 -0 0
rthumb -35.376 -13.9763 -6.05225
1839
root 6.87225 13.8403 27.8074 -19.8692 52.2125 -22.3165
lfemur -54.231 30.0987 1.67452
ltibia 70.8437 -0 0
lfoot -8.25802 -9.00538 -0.0606944
ltoes -26.7433 0 0
rfemur 4.09669 -3.52288 17.2522
rtibia 48.7031 -0 0
rfoot -25.3934 -31.2299 0.0128514
rtoes -27.7658 0 0
lowerback 13.8674 4.9432 5.42623
upperback -0.429124 7.9944 5.06019
thorax -8.21777 3.79806 0.721904
lowerneck -3.74541 10.4451 3.59463
upperneck 7.61416 14.0046 -2.43201
head 3.67041 6.96879 -0.770576
lclavicle -1.20696e-013 4.87022e-015 0
lhumerus 62.5273 18.5488 110.104
lradius 10.2066 -0 0
lwrist -88.766 0 0
lhand -31.2308 40.43 0.0522523
lfingers 7.12502 -0 0
lthumb -4.50614 70.3687 0.049522
rclavicle -1.20696e-013 4.87022e-015 0
rhumerus -72.5585 12.4265 -81.0727
rradius 125.858 -0 0
rwrist -8.47216 180 180
rhand -63.13 -14.3936 -3.70883
rfingers 7.12502 -0 0
rthumb -34.2509 -22.182 -5.94914
1840
root 6.90184 13.8359 27.818 -19.9514 52.3128 -22.5488
lfemur -54.4322 30.0979 1.68782
ltibia 70.9871 -0 0
lfoot -8.37206 -8.98634 -0.0536178
ltoes -26.7571 0 0
rfemur 4.26154 -3.62957 17.3179
rtibia 48.3994 -0 0
rfoot -25.3611 -31.1702 0.0115088
rtoes -28.2703 0 0
lowerback 13.9047 4.96145 5.59675
upperback -0.457774 8.05165 5.04938
thorax -8.24648 3.81689 0.602123
lowerneck -3.56579 10.7676 3.83898
upperneck 7.49304 14.4474 -2.70044
head 3.65427 7.18744 -0.881283
lclavicle -1.20696e-013 4.87022e-015 0
lhumerus 62.6385 18.2277 110.197
lradius 10.1841 -0 0
lwrist -88.7428 0 0
lhand -31.2613 40.4215 0.0463436
lfingers 7.12502 -0 0
lthumb -4.53549 70.3588 0.0439254
rclavicle -1.20696e-013 4.87022e-015 0
rhumerus -72.7659 12.3482 -81.5172
rradius 125.906 -0 0
rwrist -9.58697 180 180
rhand -62.036 -20.2468 -3.60921
rfingers 7.12502 -0 0
rthumb -33.1394 -30.4626 -5.68279
1841
root 6.93143 13.8315 27.8286 -20.0378 52.4191 -22.7817
lfemur -54.6284 30.0825 1.7031
ltibia 71.1166 -0 0
lfoot -8.47233 -8.95931 -0.0457816
ltoes -26.7566 0 0
rfemur 4.42244 -3.74091 17.3849
rtibia 48.1026 -0 0
rfoot -25.3349 -31.1079 0.00999189
rtoes -28.7655 0 0
lowerback 13.9413 4.97781 5.76769
upperback -0.485481 8.10634 5.03776
thorax -8.27367 3.83444 0.481883
lowerneck -3.38626 11.0849 4.08016
upperneck 7.3704 14.8837 -2.96554
head 3.63768 7.40312 -0.990083
lclavicle -1.20696e-013 4.87022e-015 0
lhumerus 62.7412 17.896 110.268
lradius 10.1622 -0 0
lwrist -88.6935 0 0
lhand -31.2946 40.4216 0.0398123
lfingers 7.12502 -0 0
lthumb -4.56764 70.3574 0.0377375
rclavicle -1.20696e-013 4.87022e-015 0
rhumerus -72.9685 12.2675 -81.9608
rradius 125.944 -0 0
rwrist -11.2823 180 180
rhand -60.9339 -25.8554 -3.42741
rfingers 7.12502 -0 0
rthumb -32.065 -38.6901 -5.26826
1842
root 6.96102 13.8271 27.8392 -20.1258 52.5283 -23.0121
lfemur -54.8186 30.0558 1.71997
ltibia 71.2358 -0 0
lfoot -8.56207 -8.92529 -0.0375524
ltoes -26.7485 0 0
rfemur 4.57868 -3.85423 17.4519
rtibia 47.8144 -0 0
rfoot -25.3143 -31.0444 0.00837102
rtoes -29.246 0 0
lowerback 13.9765 4.9927 5.93671
upperback -0.51207 8.15864 5.02575
thorax -8.29914 3.85093 0.362933
lowerneck -3.20872 11.3945 4.31623
upperneck 7.24823 15.31 -3.22535
head 3.62117 7.6141 -1.09615
lclavicle -1.20696e-013 4.87022e-015 0
lhumerus 62.8342 17.5585 110.316
lradius 10.1414 -0 0
lwrist -88.6216 0 0
lhand -31.3285 40.4267 0.0329545
lfingers 7.12502 -0 0
lthumb -4.60041 70.3609 0.031239
rclavicle -1.20696e-013 4.87022e-015 0
rhumerus -73.1657 12.1872 -82.402
rradius 125.971 -0 0
rwrist -13.6573 180 180
rhand -59.8318 -31.1979 -3.16922
rfingers 7.12502 -0 0
rthumb -31.0449 -46.7381 -4.72812
1843
root 6.99062 13.8227 27.8498 -20.2126 52.6372 -23.2367
lfemur -55.0021 30.0214 1.73799
ltibia 71.3484 -0 0
lfoot -8.64452 -8.88532 -0.0293004
ltoes -26.7393 0 0
rfemur 4.72958 -3.96689 17.5177
rtibia 47.5364 -0 0
rfoot -25.2991 -30.9815 0.00671725
rtoes -29.7064 0 0
lowerback 14.0099 5.00658 6.10148
upperback -0.537362 8.20872 5.01376
thorax -8.32265 3.86658 0.247024
lowerneck -3.03512 11.6939 4.54522
upperneck 7.12855 15.7227 -3.47786
head 3.60528 7.81862 -1.19864
lclavicle -1.20696e-013 4.87022e-015 0
lhumerus 62.9163 17.2197 110.339
lradius 10.1225 -0 0
lwrist -88.5305 0 0
lhand -31.3609 40.4333 0.0260623
lfingers 7.12502 -0 0
lthumb -4.63164 70.3659 0.0247067
rclavicle -1.20696e-013 4.87022e-015 0
rhumerus -73.357 12.1099 -82.8389
rradius 125.986 -0 0
rwrist -16.8109 180 180
rhand -58.7362 -36.2531 -2.84215
rfingers 7.12502 -0 0
rthumb -30.0872 -54.4826 -4.09057
1844
root 7.02021 13.8183 27.8604 -20.2956 52.7427 -23.4523
lfemur -55.1782 29.9825 1.75672
ltibia 71.4579 -0 0
lfoot -8.72292 -8.84041 -0.0213975
ltoes -26.7358 0 0
rfemur 4.87447 -4.07622 17.581
rtibia 47.2704 -0 0
rfoot -25.2886 -30.9208 0.00510155
rtoes -30.1409 0 0
lowerback 14.0407 5.01991 6.25966
upperback -0.561178 8.25674 5.00221
thorax -8.34399 3.88159 0.135904
lowerneck -2.86748 11.9806 4.7651
upperneck 7.01349 16.1184 -3.721
head 3.59055 8.01493 -1.29671
lclavicle -1.20696e-013 4.87022e-015 0
lhumerus 62.9864 16.8844 110.338
lradius 10.1062 -0 0
lwrist -88.4237 0 0
lhand -31.3894 40.4378 0.0194232
lfingers 7.12502 -0 0
lthumb -4.65915 70.369 0.0184133
rclavicle -1.20696e-013 4.87022e-015 0
rhumerus -73.5419 12.0382 -83.2698
rradius 125.988 -0 0
rwrist -20.8423 180 180
rhand -57.6519 -41.0003 -2.45515
rfingers 7.12502 -0 0
rthumb -29.1904 -61.8015 -3.38703
1845
root 7.0498 13.8139 27.871 -20.3718 52.8417 -23.6555
lfemur -55.3459 29.9426 1.77568
ltibia 71.568 -0 0
lfoot -8.8005 -8.79159 -0.0142143
ltoes -26.7446 0 0
rfemur 5.01267 -4.17955 17.6405
rtibia 47.018 -0 0
rfoot -25.2826 -30.8638 0.00359416
rtoes -30.5443 0 0
lowerback 14.0684 5.03314 6.40891
upperback -0.58334 8.30288 4.99153
thorax -8.36293 3.89617 0.0313231
lowerneck -2.70783 12.2521 4.97381
upperneck 6.90521 16.4937 -3.95264
head 3.57755 8.20128 -1.38952
lclavicle -1.20696e-013 4.87022e-015 0
lhumerus 63.0434 16.5571 110.311
lradius 10.0931 -0 0
lwrist -88.3047 0 0
lhand -31.4118 40.4368 0.0133211
lfingers 7.12502 -0 0
lthumb -4.68078 70.3667 0.0126284
rclavicle -1.20696e-013 4.87022e-015 0
rhumerus -73.72 11.9748 -83.6933
rradius 125.975 -0 0
rwrist -25.8505 180 180
rhand -56.5815 -45.4193 -2.01826
rfingers 7.12502 -0 0
rthumb -28.3426 -68.5744 -2.65009
1846
root 7.07939 13.8096 27.8816 -20.4384 52.9311 -23.8428
lfemur -55.5045 29.9051 1.79435
ltibia 71.6823 -0 0
lfoot -8.8805 -8.73989 -0.00811929
ltoes -26.7724 0 0
rfemur 5.14353 -4.27419 17.695
rtibia 46.7809 -0 0
rfoot -25.2805 -30.8122 0.00226405
rtoes -30.911 0 0
lowerback 14.0925 5.04674 6.5469
upperback -0.603667 8.3473 4.98213
thorax -8.37927 3.91055 -0.064969
lowerneck -2.55825 12.5061 5.16925
upperneck 6.80594 16.8452 -4.1706
head 3.56683 8.37595 -1.47621
lclavicle -1.20696e-013 4.87022e-015 0
lhumerus 63.0862 16.2425 110.257
lradius 10.0839 -0 0
lwrist -88.1769 0 0
lhand -31.4259 40.4266 0.00803856
lfingers 7.12502 -0 0
lthumb -4.69436 70.3556 0.00762004
rclavicle -1.20696e-013 4.87022e-015 0
rhumerus -73.891 11.9224 -84.1076
rradius 125.947 -0 0
rwrist -31.9346 180 180
rhand -55.5259 -49.4901 -1.54242
rfingers 7.12502 -0 0
rthumb -27.5227 -74.6816 -1.91183
